<svg id="Layer_1" data-name="Layer 1" xmlns="http://www.w3.org/2000/svg" viewBox="0 0 346.11 387.28"><defs><style>.cls-1{fill:#6a655e;}.cls-2{fill:#fefefe;}.cls-3{fill:#f79032;}</style></defs><title>dfa-logo</title><path class="cls-1" d="M624.84,202.62q0,43.48-.07,87,0,147.44.1,294.88c0,4.32-.9,5.45-5.36,5.44q-167.68-.21-335.36,0c-4.42,0-5.4-1.06-5.39-5.44q.19-190.92.08-381.84ZM316.75,307.77c0,22.49.07,45-.08,67.48,0,3.33.93,4.18,4.18,4.16,17.83-.15,35.66.22,53.48-.14,16.9-.34,32.46-5.28,45.84-15.93,22.92-18.24,31.91-49.73,22.56-78.53A69.75,69.75,0,0,0,379,236.86c-19.31-.65-38.64-.21-58-.49-3.54-.05-4.4.94-4.37,4.42C316.83,263.11,316.75,285.44,316.75,307.77ZM598,554.8a13.14,13.14,0,0,0-.43-2.35Q568.45,483,539.39,413.53c-1-2.31-2.29-2.81-4.54-2.77-6.83.11-13.67.24-20.49,0-3.52-.15-5.19.94-6.58,4.29q-26.47,63.81-53.25,127.5l-5.16,12.29c10.27,0,19.75-.09,29.23.06,2.47,0,3-1.38,3.74-3.15,3.38-8.5,6.91-16.93,10.16-25.48,1-2.53,2.11-3.57,5-3.55q26,.23,52,0c2.84,0,4.09.9,5.07,3.47,3.25,8.54,6.76,17,10.17,25.47.6,1.5.83,3.23,3.14,3.21C577.81,554.77,587.77,554.8,598,554.8ZM476.86,307.14c0,22.49.1,45-.1,67.46,0,3.84,1,4.78,4.73,4.63,7.65-.3,15.33-.28,23,0,3.54.12,4.44-1,4.4-4.44-.18-15.49.11-31-.2-46.47-.09-4.36,1.27-5.08,5.26-5,19.65.22,39.31,0,59,.19,3.8,0,4.86-1,4.68-4.74-.32-6.48-.33-13,0-19.48.2-4-1-5-5-5-19.82.21-39.64,0-59.46.19-3.49,0-4.57-.87-4.43-4.41.28-7.15.38-14.34,0-21.48-.24-4.22,1.36-4.84,5.06-4.81,22.82.15,45.64,0,68.46.15,3.33,0,4.72-.63,4.56-4.31-.3-6.65-.35-13.34,0-20,.22-4-1.33-4.58-4.85-4.57q-50.22.18-100.44,0c-3.62,0-4.78.74-4.74,4.64C477,262.17,476.85,284.66,476.86,307.14ZM329.74,554.87c16.38-12.05,31.88-23.29,47.15-34.83,3-2.29,4.92-2.54,8-.18,10.71,8.2,21.66,16.08,32.52,24.07,4.66,3.43,9.34,6.85,14.83,10.88-6.17-18.6-11.74-36.2-17.94-53.58-1.82-5.09-1.22-7.73,3.34-10.85,15.29-10.47,30.22-21.46,45.9-32.69-20.28,0-39.73-.1-59.19.1-3,0-4.41-.61-5.27-3.61-2.3-8-5-15.88-7.49-23.8-3.42-10.72-6.85-21.43-10.59-33.15-6.21,19.48-12.15,37.81-17.82,56.22-1.08,3.5-2.56,4.43-6.25,4.36-18.16-.31-36.32-.22-54.48-.2-.95,0-2.3-.86-3,.8,15.73,11.26,31.39,22.57,47.17,33.69,2.46,1.73,3,3.18,2,6.06C342.34,516.73,336.23,535.36,329.74,554.87Z" transform="translate(-278.77 -202.62)"/><path class="cls-2" d="M316.75,307.77c0-22.33.08-44.65-.08-67,0-3.48.83-4.47,4.37-4.42,19.32.28,38.66-.16,58,.49a69.75,69.75,0,0,1,63.73,47.94c9.35,28.8.36,60.29-22.56,78.53-13.38,10.65-28.94,15.59-45.84,15.93-17.82.36-35.65,0-53.48.14-3.25,0-4.2-.83-4.18-4.16C316.82,352.75,316.75,330.26,316.75,307.77Zm31,.21c0,13,.08,26-.06,38.95,0,2.89.44,4.13,3.74,4,7.14-.33,14.31,0,21.46-.28,23-.88,37.5-14.08,40.58-36.75,3.16-23.25-10.26-43.36-32.26-47.91-9.69-2-19.58-.67-29.38-1.09-3.27-.14-4.21.84-4.16,4.16C347.9,282,347.78,295,347.78,308Z" transform="translate(-278.77 -202.62)"/><path class="cls-2" d="M598,554.8c-10.2,0-20.15,0-30.11,0-2.31,0-2.53-1.71-3.14-3.21-3.41-8.48-6.92-16.92-10.17-25.47-1-2.57-2.23-3.5-5.07-3.47q-26,.23-52,0c-2.88,0-4,1-5,3.55-3.25,8.54-6.79,17-10.16,25.48-.7,1.77-1.27,3.19-3.74,3.15-9.48-.15-19-.06-29.23-.06l5.16-12.29q26.67-63.73,53.25-127.5c1.39-3.34,3.06-4.44,6.58-4.29,6.82.29,13.66.16,20.49,0,2.25,0,3.58.46,4.54,2.77q29,69.5,58.14,138.93A13.14,13.14,0,0,1,598,554.8Zm-56-60L523.52,449.1c-6,14.83-11.62,28.79-17.28,42.74-.72,1.77-1.28,3.06,1.67,3C519,494.76,530.14,494.82,542,494.82Z" transform="translate(-278.77 -202.62)"/><path class="cls-2" d="M476.85,307.14c0-22.49.11-45-.11-67.46,0-3.9,1.13-4.65,4.74-4.64q50.22.19,100.44,0c3.51,0,5.06.57,4.85,4.57-.36,6.64-.31,13.33,0,20,.17,3.68-1.23,4.33-4.56,4.31-22.82-.13-45.64,0-68.46-.15-3.71,0-5.3.59-5.06,4.81.4,7.14.3,14.33,0,21.48-.14,3.54.94,4.44,4.43,4.41,19.82-.17,39.64,0,59.46-.19,3.94,0,5.18,1,5,5-.33,6.48-.32,13,0,19.48.18,3.74-.88,4.78-4.68,4.74-19.65-.2-39.31,0-59-.19-4,0-5.35.67-5.26,5,.31,15.48,0,31,.2,46.47,0,3.47-.86,4.57-4.4,4.44-7.65-.27-15.33-.28-23,0-3.69.14-4.77-.79-4.73-4.63C477,352.12,476.86,329.63,476.85,307.14Z" transform="translate(-278.77 -202.62)"/><path class="cls-3" d="M329.74,554.87c6.49-19.52,12.6-38.14,18.92-56.69,1-2.89.45-4.33-2-6.06-15.79-11.13-31.44-22.43-47.17-33.69.66-1.66,2-.8,3-.8,18.16,0,36.32-.12,54.48.2,3.69.06,5.18-.87,6.25-4.36,5.67-18.41,11.61-36.74,17.82-56.22,3.75,11.72,7.17,22.43,10.59,33.15,2.53,7.92,5.19,15.81,7.49,23.8.86,3,2.22,3.64,5.27,3.61,19.45-.2,38.91-.1,59.19-.1-15.68,11.23-30.61,22.22-45.9,32.69-4.56,3.12-5.16,5.76-3.34,10.85,6.2,17.37,11.77,35,17.94,53.58-5.49-4-10.16-7.44-14.83-10.88-10.86-8-21.82-15.87-32.52-24.07-3.09-2.36-5-2.12-8,.18C361.62,531.58,346.12,542.82,329.74,554.87Z" transform="translate(-278.77 -202.62)"/><path class="cls-1" d="M347.78,308c0-13,.12-26-.08-38.95-.05-3.32.89-4.29,4.16-4.16,9.79.42,19.69-.91,29.38,1.09,22,4.55,35.42,24.66,32.26,47.91-3.08,22.66-17.58,35.86-40.58,36.75-7.15.27-14.32,0-21.46.28-3.3.15-3.77-1.09-3.74-4C347.86,333.94,347.78,321,347.78,308Z" transform="translate(-278.77 -202.62)"/><path class="cls-1" d="M542,494.82c-11.87,0-23-.07-34.1,0-2.95,0-2.39-1.25-1.67-3,5.66-14,11.29-27.92,17.28-42.74Z" transform="translate(-278.77 -202.62)"/></svg>