<svg id="Layer_1" data-name="Layer 1" xmlns="http://www.w3.org/2000/svg" viewBox="0 0 404.19 394.21"><defs><style>.cls-1,.cls-2{fill:#191717;}.cls-1{fill-rule:evenodd;}</style></defs><title>gh-logo</title><path class="cls-1" d="M516.4,272c-111.6,0-202.09,90.48-202.09,202.09a202.14,202.14,0,0,0,138.2,191.77c10.1,1.87,13.81-4.39,13.81-9.72,0-4.82-.19-20.74-.27-37.63C409.82,630.72,398,594.64,398,594.64c-9.19-23.36-22.44-29.57-22.44-29.57-18.34-12.54,1.38-12.29,1.38-12.29,20.29,1.42,31,20.83,31,20.83,18,30.89,47.28,22,58.81,16.8,1.81-13.06,7-22,12.83-27-44.89-5.11-92.08-22.44-92.08-99.88,0-22.06,7.9-40.09,20.82-54.24-2.1-5.09-9-25.65,2-53.48,0,0,17-5.43,55.59,20.72a191.63,191.63,0,0,1,101.21,0c38.57-26.15,55.52-20.72,55.52-20.72,11,27.84,4.08,48.39,2,53.48,13,14.15,20.8,32.18,20.8,54.24,0,77.62-47.28,94.71-92.28,99.71,7.25,6.27,13.71,18.57,13.71,37.42,0,27-.23,48.8-.23,55.46,0,5.38,3.64,11.68,13.88,9.7A202.12,202.12,0,0,0,718.49,474.07C718.49,362.45,628,272,516.4,272Z" transform="translate(-314.31 -271.98)"/><path class="cls-2" d="M390.85,562.14c-.44,1-2,1.31-3.46.62s-2.29-2-1.81-3,2-1.32,3.48-.63,2.3,2,1.8,3Zm-2.49-1.84" transform="translate(-314.31 -271.98)"/><path class="cls-2" d="M399,571.27c-1,.89-2.85.48-4.13-.93s-1.57-3.29-.59-4.2,2.82-.47,4.14.93,1.58,3.29.58,4.2Zm-1.93-2.07" transform="translate(-314.31 -271.98)"/><path class="cls-2" d="M407,582.91c-1.24.86-3.26.06-4.52-1.74s-1.24-4,0-4.82,3.25-.09,4.52,1.7,1.24,4,0,4.86Zm0,0" transform="translate(-314.31 -271.98)"/><path class="cls-2" d="M417.92,594.15c-1.11,1.22-3.47.89-5.19-.77s-2.26-3.94-1.15-5.16,3.5-.88,5.24.77,2.29,4,1.11,5.16Zm0,0" transform="translate(-314.31 -271.98)"/><path class="cls-2" d="M433,600.68c-.49,1.58-2.76,2.3-5,1.63s-3.78-2.55-3.32-4.14,2.76-2.34,5.06-1.62,3.78,2.53,3.31,4.14Zm0,0" transform="translate(-314.31 -271.98)"/><path class="cls-2" d="M449.52,601.89c.06,1.67-1.89,3-4.29,3.08s-4.37-1.29-4.4-2.93,1.9-3,4.31-3.09,4.37,1.29,4.37,2.95Zm0,0" transform="translate(-314.31 -271.98)"/><path class="cls-2" d="M464.91,599.28c.29,1.62-1.38,3.29-3.77,3.74s-4.52-.57-4.82-2.19,1.41-3.34,3.75-3.77,4.53.56,4.83,2.22Zm0,0" transform="translate(-314.31 -271.98)"/></svg>