<svg id="Layer_1" data-name="Layer 1" xmlns="http://www.w3.org/2000/svg" viewBox="0 0 386.8 386.79"><defs><style>.cls-1{fill:#007bb6;}.cls-2{fill:#fff;}</style></defs><title>li-logo</title><path class="cls-1" d="M685.22,263.77H355.6c-15.75,0-28.55,12.48-28.55,27.88v331c0,15.41,12.8,27.91,28.55,27.91H685.22c15.78,0,28.63-12.5,28.63-27.91v-331C713.85,276.26,701,263.77,685.22,263.77Z" transform="translate(-327.05 -263.77)"/><path class="cls-2" d="M384.4,408.78h57.37V593.37H384.4ZM413.1,317a33.26,33.26,0,1,1-33.27,33.25A33.27,33.27,0,0,1,413.1,317" transform="translate(-327.05 -263.77)"/><path class="cls-2" d="M477.75,408.78h55V434h.76c7.65-14.51,26.37-29.81,54.28-29.81,58.09,0,68.82,38.23,68.82,87.93V593.37H599.32V503.6c0-21.41-.39-48.95-29.81-48.95-29.85,0-34.43,23.32-34.43,47.4v91.31H477.75Z" transform="translate(-327.05 -263.77)"/></svg>