<svg id="Layer_1" data-name="Layer 1" xmlns="http://www.w3.org/2000/svg" viewBox="0 0 457 457.25"><defs><style>.cls-1{fill:#da6562;}.cls-2{fill:#dd645b;}.cls-3{fill:#073f5c;}.cls-4{fill:#f8f5f4;}.cls-5{fill:#f9faf9;}.cls-6{fill:#f9fbfb;}.cls-7{fill:#f9fafa;}.cls-8{fill:#f5f8f9;}.cls-9{fill:#f6f8fa;}.cls-10{fill:#f5f7fa;}.cls-11{fill:#f3f7fa;}.cls-12{fill:#f9fcfc;}.cls-13{fill:#f3f6f9;}.cls-14{fill:#f3f7f9;}.cls-15{fill:#0f425c;}.cls-16{fill:#1c4360;}.cls-17{fill:#0b405f;}.cls-18{fill:#09405c;}.cls-19{fill:#fff;}.cls-20{fill:#90bcbd;}.cls-21{fill:#e5605b;}.cls-22{fill:#283c4c;}.cls-23{fill:#fbf6f4;}.cls-24{fill:#f9d8cc;}.cls-25{fill:#8fbbbc;}</style></defs><title>ndv-logo</title><path class="cls-1" d="M733.94,335.7c-5.51,48.9-24.24,91.92-57.06,128.76a225.88,225.88,0,0,1-76.23,56c-35.23,16-72.23,22.2-110.86,19.52-40.27-2.8-77.24-15.28-110.5-37.9-53.53-36.4-86.12-86.82-98.24-150.4-1.39-7.3-2.21-14.72-3.3-22.08v-38c2.36-7.1,2.41-14.61,3.81-21.88a229.33,229.33,0,0,1,92.81-144.56A224,224,0,0,1,482.49,84.62c37.1-3.77,73.06.85,107.78,14.59a226.77,226.77,0,0,1,92,66.61,223.2,223.2,0,0,1,43.28,80.77c-1.49.77-1.42,3.54-3.91,3-4.06-6.78-5.49-14.59-8.53-21.79-13.78-32.62-33.59-60.73-60.38-84A221.8,221.8,0,0,0,551.92,93.5a213.6,213.6,0,0,0-60.09-4.33c-36.27,2.59-70.31,13-101.33,32.26q-77.71,48.25-100.6,136.93a205.92,205.92,0,0,0-6.72,60.83c2,43.19,14.44,83,39.15,118.93A228.23,228.23,0,0,0,347,468.22a221.66,221.66,0,0,0,69,47.88,216.59,216.59,0,0,0,67.83,18c46.91,4.48,91.09-4.63,132.26-27.84a219.8,219.8,0,0,0,49.83-38.13,222.58,222.58,0,0,0,55.51-96.4,216.34,216.34,0,0,0,8.09-64.15c-.06-2.72-.86-5.71,1.35-8.11,3.5,1.42,3,4.44,2.64,7.18-1.16,8.6,1,17.28-.71,25.87C732.54,333.68,733.4,334.68,733.94,335.7Z" transform="translate(-277.75 -83.35)"/><path class="cls-2" d="M722.55,250c.84-1.29-.23-4.25,3-3.41A220.43,220.43,0,0,1,734,289.44c0,.41.49.79.74,1.18v45l-.39.15-.41-.07c-2.88.88-3.44-1.47-2.93-3,3.09-9.11-1-18.57,1.56-27.69.5-1.81-.47-3.84-1.77-5.42-2-2.26-2.21-5.16-2.33-7.89-.53-11.77-3.4-23.13-5.77-34.58C722.21,254.8,720.89,252.4,722.55,250Z" transform="translate(-277.75 -83.35)"/><path class="cls-3" d="M284.88,306.83c3.3-123.58,105.85-221.15,230.72-216.18,119.08,4.74,216.07,104.28,212.1,228.66-3.81,119.37-101.78,215.46-223.27,214C379.69,531.74,282.3,430.42,284.88,306.83Z" transform="translate(-277.75 -83.35)"/><path class="cls-4" d="M506.4,153.24c85.62-.79,157.22,69.37,158.79,155.43,1.64,89.65-70.64,162.14-158.82,162.06-88.4-.08-157.66-71.59-158.8-156.58C346.37,224.22,420,152.41,506.4,153.24Z" transform="translate(-277.75 -83.35)"/><path class="cls-5" d="M507.09,500.07a28.6,28.6,0,0,1-2.7,12.57c-2.8,5.91-8.43,9.3-14.3,8.79a14.47,14.47,0,0,1-13-11.29,31,31,0,0,1,1.11-19c2.7-6.89,8.07-10.6,14.35-10.27,6.8.35,11.94,4.88,13.71,12.33A57.18,57.18,0,0,1,507.09,500.07Z" transform="translate(-277.75 -83.35)"/><path class="cls-6" d="M552.32,489.34c9.74-1.39,15.38,1.35,17.46,8.09,2.35,7.6-1.92,15.39-9.85,18-8.84,2.9-16.83-1.11-19.82-9.86-3.24-9.47,2.18-21.87,8-27.93,2.34-2.43,6-.95,9-.3,1.71.37.67,1.91,0,2.79A37,37,0,0,0,552.32,489.34Z" transform="translate(-277.75 -83.35)"/><path class="cls-7" d="M446.48,485.46c1.57-8.88,6.17-11.71,14.74-9.57,8,2,11.9,8.27,9.9,15.55-1.27,4.63-4.47,7.67-7.85,10.63-1.83,1.61-3.76,3.1-6.12,5,3.35.92,6,1.94,8.65,2.3,3.42.46,3.53,2.2,2.55,4.79-.84,2.22-.26,5.26-4.85,3.72-8.08-2.7-16.49-4.41-25.72-6.78,4.82-3.3,8.87-6,12.89-8.84,3.14-2.18,6.15-4.5,8.23-7.83,1.79-2.88,2.74-5.87.5-8.79-2.1-2.75-5.26-2.5-8.26-1.91A34.82,34.82,0,0,0,446.48,485.46Z" transform="translate(-277.75 -83.35)"/><path class="cls-8" d="M536,143.78c-12.67-.05-22.23-8.83-21.94-20.13.31-12.09,8.89-20.39,21.07-20.37,12.57,0,21.86,8.65,21.78,20.21C556.8,135.64,548.37,143.83,536,143.78Z" transform="translate(-277.75 -83.35)"/><path class="cls-9" d="M379.06,156c5.79,8.13,10.65,15.06,15.64,21.89,1.35,1.85,2.1,3.06-.35,4.76-2.75,1.91-3-.56-3.95-1.8-6.26-8.61-12.5-17.24-18.64-25.94-.81-1.15-2.87-2.26-1.2-4.17,1.52-1.74,3.5-1.62,5.53-1.13q15.48,3.78,31,7.52c1.58.38,3.17.69,5.83,1.26-5.7-8-10.78-15.11-15.88-22.23-1.1-1.53-2.29-2.92.11-4.48,1.47-.95,2.38-1.36,3.61.4,6.7,9.52,13.5,19,20.28,28.44.57.8,1.43,1.55.43,2.57a5.12,5.12,0,0,1-5.33,1.68c-7.88-2-15.81-3.83-23.72-5.7C388.39,158.11,384.37,157.22,379.06,156Z" transform="translate(-277.75 -83.35)"/><path class="cls-10" d="M434,116.5a19.27,19.27,0,0,1,19,15c2.15,8.74-1.75,18-9.67,22-5.34,2.64-14.55,7-16.34,6.21-2.37-1-5-9.44-7.33-14.57-2.66-5.9-5-12-7.49-17.92-.91-2.15-.85-3.52,1.82-4.39C420.84,120.56,427.21,116.57,434,116.5Z" transform="translate(-277.75 -83.35)"/><path class="cls-11" d="M621.52,136.31c-1.2.87-.69,4.43-3.93,2.59s-6.42-3.5-9.46-5.5c-2.38-1.57-3.68-1.62-5.25,1.21-4.17,7.52-4.33,7.44,3.05,11.68a31.85,31.85,0,0,0,4.35,2.41c2.48.94,2.06,2.27,1.14,4.17-1.09,2.26-2.23,1.11-3.49.38a59.66,59.66,0,0,0-5.63-3.18c-2.14-.95-4.31-4.32-6.29-2.58-2.48,2.17-3.78,5.76-5.36,8.86-.79,1.55,1,1.81,1.85,2.32,3.41,2.06,6.83,4.12,10.36,6,1.78.93,1.93,1.86,1,3.43s-1.54,2.13-3.4,1q-7.37-4.61-15.08-8.66c-2.46-1.29-2.31-2.5-1.07-4.59q8.37-14.15,16.46-28.45c1.2-2.13,2.06-2.94,4.46-1.39,4.6,3,9.42,5.57,14.15,8.32C620.2,134.75,621.24,135,621.52,136.31Z" transform="translate(-277.75 -83.35)"/><path class="cls-12" d="M528.92,516.9c.88,2.75-.45,4.22-4,4-2.75-.19-6.49,2.67-6.8-3.42-.55-10.76-1.62-21.5-2.84-32.21-.44-3.88,2.22-2.78,4-3.23,4.2-1.08,6.87-1,7,5C526.48,496.73,527.93,506.46,528.92,516.9Z" transform="translate(-277.75 -83.35)"/><path class="cls-13" d="M639.2,158.92c-.86-4.09-2.53-7.24-6-9.13-1.65-.9-3.38-1.52-5.19-.44s-2.42,3-2.28,5.15c.24,3.57,2.19,6.58,3.18,9.91,2.34,7.83-.4,14.69-6.76,16.24s-14.53-3.8-16-10.47c-.62-2.84,2-3.83,3.21-5.93,1.72,2.68,1.63,5.75,3.5,8,2.3,2.71,5.12,4.83,8.63,3.09,3.34-1.66,3.39-5,2.3-8.27s-2.31-6.22-3.16-9.41c-1.46-5.5,0-9.62,4.14-12.14,4.62-2.85,8.87-1.79,12.88,1.29C643.57,151.32,644.06,154.3,639.2,158.92Z" transform="translate(-277.75 -83.35)"/><path class="cls-11" d="M477.94,103.34c4-1.56,5.85-.35,7.36,3,3.39,7.55,7.23,14.9,11.4,23.38,2.2-5.79,4.1-10.75,6-15.73,1.28-3.42,2.71-6.79,3.7-10.29.86-3,3.31-2.92,5.09-2.3,2.16.75.26,2.6-.14,3.76-3.79,10.78-7.7,21.52-11.65,32.24-.55,1.49-.72,1.51-2.71,4.48Z" transform="translate(-277.75 -83.35)"/><path class="cls-14" d="M564.68,109.06c.48.16,1,.3,1.42.47,8.52,3.18,17,6.41,25.58,9.53,1.8.66,2.83,1.3,2.12,3.5-.79,2.47-2.08,1.77-3.82,1.19-3.26-1.09-8.33-3.73-9.61-2.88-2.87,1.92-3.21,6.59-4.58,10.11-2.39,6.18-4.72,12.38-6.86,18.64-.74,2.16-1.44,2.87-3.83,2.07-2.57-.86-2.27-2-1.5-4,3.24-8.51,6.15-17.16,9.53-25.61,1.27-3.16,1.1-4.7-2.45-5.52a61.41,61.41,0,0,1-7-2.56c-1.12-.41-2.36-.59-1.31-2.29C563,110.68,562.65,108.86,564.68,109.06Z" transform="translate(-277.75 -83.35)"/><path class="cls-1" d="M506.3,467c-83.7.64-157.85-68-155-160.23,2.52-82.6,69.31-149.51,154.63-149.78,85.6-.27,154.4,67.72,155.35,152.59C662.24,397.5,593.34,466.71,506.3,467Z" transform="translate(-277.75 -83.35)"/><path class="cls-15" d="M495.74,499.1a34.06,34.06,0,0,1-1.14,10.38c-.49,2-1.42,3.9-4,3.64-2.23-.23-2.83-1.84-3.12-3.85-.82-5.53,0-10.93,1.17-16.29.45-2,1.49-4,3.93-3.76s3.06,2.27,3.15,4.39C495.81,495.44,495.75,497.27,495.74,499.1Z" transform="translate(-277.75 -83.35)"/><path class="cls-16" d="M549.83,501.86c.21-3.57,2.22-5.21,5.48-5.22,3.6,0,5,2.7,5,5.62,0,3.15-2,5.37-5.4,5.19S550.11,504.91,549.83,501.86Z" transform="translate(-277.75 -83.35)"/><path class="cls-17" d="M535.45,138.73c-9-.17-15.78-6.84-15.55-15.25a15,15,0,0,1,15.74-15c8.63.24,15.85,7,15.76,14.76A15.38,15.38,0,0,1,535.45,138.73Z" transform="translate(-277.75 -83.35)"/><path class="cls-18" d="M435.09,121.81c5.19.13,10.17,3.93,12.22,10.36a14.22,14.22,0,0,1-5.14,16c-3.38,2.53-7.5,3.51-11.24,5.28-1.86.88-2.34-.62-2.82-1.78-3-7.35-5.94-14.74-9-22.08-.88-2.12-.61-3.24,1.79-4C425.13,124.09,429,121.53,435.09,121.81Z" transform="translate(-277.75 -83.35)"/><path class="cls-19" d="M506.54,161.3c83.08-.36,152.79,69,150.43,155.11-2.17,79.27-67.59,147.12-152.26,146.38-82.9-.73-150.22-69.1-149.26-152.89C356.4,228,424.08,160.94,506.54,161.3Z" transform="translate(-277.75 -83.35)"/><path class="cls-20" d="M501.89,449.81c-10.82-6.8-20.74-13.07-30.69-19.3-18.58-11.63-37.08-23.4-55.81-34.77-5.1-3.09-7.86-6.12-7.76-12.74.43-30.82.18-61.64.21-92.46,0-1.44-.73-3.38.58-4.22,1.63-1,3.13.7,4.43,1.51q32.67,20.55,65.23,41.27,10.31,6.52,20.7,12.9c1.76,1.08,3.16,2.12,3.16,4.58C501.87,380.56,501.89,414.53,501.89,449.81Z" transform="translate(-277.75 -83.35)"/><path class="cls-20" d="M510.86,449.59c-.1-1.84-.2-2.83-.2-3.81,0-32.3,0-64.6-.09-96.9,0-3.57,1.09-5.72,4.16-7.62q43.15-26.74,86.11-53.79c3.42-2.15,4-1.44,4,2.23q-.12,48.95,0,97.89c0,2.48-.86,3.77-3,5.1-26.29,16.49-52.49,33.13-78.74,49.69C519.34,444.75,515.44,446.9,510.86,449.59Z" transform="translate(-277.75 -83.35)"/><path class="cls-20" d="M552.25,251.61c8,4.29,16,8.52,24,12.9,6.84,3.77,13.58,7.71,20.37,11.56,2.7,1.53,3.79,2.76.26,4.93C578.17,292.45,559.58,304,541,315.63c-9.72,6.05-19.49,12-29,18.34-4.29,2.83-7.44,2.81-12-.24C486,324.4,471.64,315.84,457.43,307c-13.93-8.69-27.8-17.49-41.83-26-3.93-2.4-1.86-3.62.47-4.92q22.61-12.64,45.27-25.18c4.94-2.74,9.94-5.37,14.92-8.05,2,1,2,3,2,4.75.13,16.76.19,33.52,0,50.28a9.71,9.71,0,0,1-.66,3.39,8,8,0,0,1-1.74,2.37c-.84.88-2.75,1.42-1.81,3a4.27,4.27,0,0,0,4.32,1.94,10.74,10.74,0,0,0,4.48-2.07c20.18-12.78,40.59-25.19,60.58-38.27,3.17-2.07,6.74-3.51,9.66-6.06-.45-1.51-2.17-2.16-2.33-3.76C550.48,256,549.58,253.38,552.25,251.61Z" transform="translate(-277.75 -83.35)"/><path class="cls-21" d="M475.92,302.47a9.55,9.55,0,0,0,.63-2.39c0-19.1.51-38.2-.29-57.29.12-5.48.34-11,.31-16.44,0-2.4.66-4.11,2.74-5.41q35.74-22.26,71.45-44.57c.09-.06.31.08.58.16,1.1,1.4.51,3.11.51,4.69,0,21.65,0,43.29.06,64.94,0,1.82.21,3.64.32,5.46l-.56,8.22c.2,2.58-2,3.3-3.57,4.29-19.75,12.33-39.23,25.08-59.35,36.81-2.58,1.5-4.74,3.66-7.4,5.06C477.08,308.24,476,307.54,475.92,302.47Z" transform="translate(-277.75 -83.35)"/><path class="cls-22" d="M475.92,302.47c.87,3.79,2.12,4.27,5.75,1.94,21.77-14,43.78-27.55,65.69-41.29,1.53-1,2.89-2.19,4.32-3.29,4.37,1.1,3.65,2.57.46,4.56q-35.68,22.3-71.31,44.68c-2.37,1.49-8.86,0-9.36-2.46C470.91,303.73,474.25,303.71,475.92,302.47Z" transform="translate(-277.75 -83.35)"/><path class="cls-23" d="M540.78,212.65c-14.94,17.46-26.58,37-36.32,58.62L484.9,246.55c5.29.55,8.77,3.93,12.55,6.32,3.05,1.93,4.35,1.22,6.09-1.32a211.94,211.94,0,0,1,23.3-29.07c3.75-3.83,7.88-7.28,11.84-10.91C539.87,211,540.8,210.89,540.78,212.65Z" transform="translate(-277.75 -83.35)"/><path class="cls-24" d="M540.78,212.65l-2.1-1.08c2.23-2.72,5.58-3.93,8.48-5.91A20.75,20.75,0,0,1,540.78,212.65Z" transform="translate(-277.75 -83.35)"/><polygon class="cls-25" points="48.42 240.84 37.23 234.82 25.93 240.62 28.2 228.12 19.19 219.16 31.78 217.46 37.51 206.12 43.02 217.56 55.58 219.51 46.4 228.29 48.42 240.84"/><polygon class="cls-25" points="429.03 240.75 417.84 234.73 406.53 240.54 408.8 228.03 399.79 219.08 412.38 217.37 418.12 206.03 423.63 217.48 436.19 219.43 427 228.21 429.03 240.75"/></svg>