<svg id="Layer_1" data-name="Layer 1" xmlns="http://www.w3.org/2000/svg" xmlns:xlink="http://www.w3.org/1999/xlink" viewBox="0 0 482.85 480.34"><defs><style>.cls-1{fill:url(#linear-gradient);}.cls-2{fill:url(#linear-gradient-2);}</style><linearGradient id="linear-gradient" x1="350.42" y1="715.98" x2="589.17" y2="476.42" gradientTransform="matrix(1, 0, 0, -1, -44.94, 934.53)" gradientUnits="userSpaceOnUse"><stop offset="0" stop-color="#3a7fb9"/><stop offset="1" stop-color="#376a95"/></linearGradient><linearGradient id="linear-gradient-2" x1="497.24" y1="563.48" x2="753.67" y2="317.81" gradientTransform="matrix(1, 0, 0, -1, -44.94, 934.53)" gradientUnits="userSpaceOnUse"><stop offset="0" stop-color="#fee053"/><stop offset="1" stop-color="#ffc433"/></linearGradient></defs><title>py-logo</title><g id="layer1"><g id="g1894"><path id="path8615" class="cls-1" d="M499.9,175.44C377.32,175.44,385,228.59,385,228.59l.14,55.07h117V300.2H338.65S260.21,291.3,260.21,415s68.46,119.3,68.46,119.3h40.86V476.89s-2.2-68.46,67.37-68.46h116s65.18,1.05,65.18-63V239.53S628,175.44,499.9,175.44Zm-64.5,37a21,21,0,1,1-21,21A21,21,0,0,1,435.4,212.47Z" transform="translate(-260.21 -175.44)"/><path id="path8620" class="cls-2" d="M503.38,655.77c122.58,0,114.92-53.16,114.92-53.16l-.14-55.07h-117V531H664.63s78.44,8.9,78.44-114.79-68.46-119.3-68.46-119.3H633.74v57.39s2.2,68.46-67.37,68.46h-116s-65.18-1.05-65.18,63v105.9S375.28,655.77,503.38,655.77Zm64.5-37a21,21,0,1,1,21-21A21,21,0,0,1,567.88,618.74Z" transform="translate(-260.21 -175.44)"/></g></g></svg>