<svg id="Layer_1" data-name="Layer 1" xmlns="http://www.w3.org/2000/svg" viewBox="0 0 487.77 304.54"><defs><style>.cls-1{fill:#231f20;}</style></defs><title>sub-logo</title><path class="cls-1" d="M634,373.21c-2.82-13.25-2.69-26.24,3.42-38.69,9.9-14.61,23.74-20.77,41.15-18.81a32.78,32.78,0,0,1,18.77,8.62c18.83,17.44,27,39.39,24.61,64.64-1.6,17-11.74,28.3-28.38,33-17.27,4.83-31.42-.68-42.87-14C642,397.91,637.29,385.9,634,373.21Z" transform="translate(-234.61 -253.87)"/><path class="cls-1" d="M640.68,291.15c-10.88,7-17.87,17.11-22.55,29.46-2.86-4-3.48-8.33-4.88-12.33q-8.44-24.25-16.71-48.56c-1.7-5-1.34-5.5,4-5.11,14.62,1.07,29,3.72,43.28,6.89,13.43,3.33,26.64,7.31,39.34,13.24C667.48,276.61,653.09,281.33,640.68,291.15Z" transform="translate(-234.61 -253.87)"/><path class="cls-1" d="M346.49,500.42c7.54,1.49,14.89,3.37,16.86,12.33,2,9.35-2.4,16.07-9.44,21.44a56.42,56.42,0,0,1-14.53,7.54c-3.61,1.36-6.31-.26-9.63-1.18-7.57-2.32-24.65-9.68-37.6-17.72-7.5-5.56-15.64-10.34-22.75-18.37h8.72c17.13.26,34-3.14,51-4.12A144.29,144.29,0,0,1,346.49,500.42Z" transform="translate(-234.61 -253.87)"/><path class="cls-1" d="M682.54,456.56a54.22,54.22,0,0,1-33.8-11.26c1.51,5.89,3.33,11.37,5.26,16.81.76,2.13,1.11,3.73-1.74,4.59-9.54,2.9-19,6-28.54,9-5.21,2-4.9,1.81-7.21,2.57-5,1.64-5-1.4-6.7-6.41-3.37-9.91-6.88-19.78-10.24-29.69-8.54-25.19-17.27-50.31-25.8-75.5-8.42-24.88-16.95-49.71-25.41-74.57-3.75-11-7.18-22.13-11.52-32.94-1.05-2.62-2.61-5-5.5-5.23-7.12-.64-78.24,12.11-84.71,14-10.21,3-20.48,5.71-30.62,8.91-34,10.72-66.21,25.14-96.16,44.55-25.64,16.61-48.28,36.43-66.26,61.31l-10.15,17.2c-3.41,8.6-7.35,17-8.82,26.74a11.84,11.84,0,0,0,2.08-1c23.81-18.81,51.32-28.09,81.21-29.34,23.34-1,42.06,8.44,53.38,30,1.37,2.61,1.57,3.84-1.8,4.89-12.54,3.89-25,8-37.44,12.25-2.65.89-4.12.58-5.55-2-5.12-9.41-13.68-12-23.69-11.28a67.44,67.44,0,0,0-22.53,6.11,30.56,30.56,0,0,0-10.67,7.22c-6.4,7.13-4.6,16.94,3.88,21.41,4.1,2.16,8.53,2.65,13.05,2.79,12.88.41,25.51-2.14,38.25-3.36,12.24-1.18,24.49-2.65,36.8-.68,4.52,1.06,10.35,2.75,12,3.16,5,1.24,7.15,2.66,11.05,4.79,3.1,1.48,5.31,4,7.39,6.57,13.08,16.19,14,42.18,2.19,59.41-4.43,6.49-10.07,11.8-16,16.7.86,1.38,2,1.3,2.9,1.42,40.11,5,80,3.07,119.81-3.46a500.53,500.53,0,0,0,88.56-23.51c4.82-1.56,20.49-8.19,23.65-9.63,11.44-5.19,13-6.08,27.49-13.71l8.13-4.65c14-8.86,28-17.76,40.79-28.47a208.11,208.11,0,0,0,20.66-19.26C700.26,454.65,691.61,457.3,682.54,456.56ZM588,487.08c-3.24,1-5.59,1.75-9.48,3-10.23,3.27-18.68,5.82-27.88,9.19-3,1.11-3.72-.62-4.48-2.9-2-6.09-4.2-12.14-6.76-19.51-1.84,4.6-3,8-4.5,11.16-10.67,21.9-29.36,32.84-52.28,37.67-13.39,2.83-26.77,3.57-39.62-2.62-13.53-6.52-21.66-18-27.61-31.09-8.4-18.53-13.72-38.2-20.54-57.31h0l-9.34-28c-3.21-9.07-6.38-18.16-9.67-27.2-.76-2.09-.11-3.08,1.86-3.69,7.92-2.44,15.83-4.93,23.75-7.4a56.78,56.78,0,0,1,11-3.82c9.41-3.76,9.44-3.77,12.52,5.19q15.12,43.87,30.22,87.75a56.34,56.34,0,0,0,9.24,17c5.79,7.21,13.27,11.42,22.62,10.22,14.67-1.9,28.21-6.44,34.73-21.43,4.11-9.45,2.75-19.37,0-28.91-6.61-23-15.25-45.41-22.76-68.15-2.61-7.9-5.21-15.8-8.08-23.61-1-2.8-.19-3.91,2.35-4.7,12.06-3.77,24.11-7.6,36.16-11.41h0a27.85,27.85,0,0,0,3.2-1.31c3.06-1.7,4.54-.91,5.7,2.5q22.2,65.47,44.63,130.85c2.58,7.56,5.1,15.14,7.86,22.63C592.1,484.52,591.41,486,588,487.08Z" transform="translate(-234.61 -253.87)"/></svg>